<svg width="32" height="24" viewBox="0 0 32 24" fill="none" xmlns="http://www.w3.org/2000/svg">
<path d="M25.9601 12.5314C26.0869 11.8781 26.1551 11.1954 26.1551 10.503C26.1649 4.70051 21.4351 0 15.6034 0C9.7716 0 5.04183 4.70051 5.04183 10.503C5.04183 11.1954 5.1101 11.8781 5.23688 12.5314C3.9301 13.3311 3.05241 14.7744 3.05241 16.4128C3.05241 18.9288 5.10035 20.967 7.63589 20.967C8.8159 20.967 9.88863 20.5282 10.6981 19.7968C12.1609 20.5574 13.8285 20.9963 15.5936 20.9963C17.3587 20.9963 19.0263 20.5574 20.4892 19.7968C21.2986 20.5184 22.3713 20.967 23.5513 20.967C26.0771 20.967 28.1348 18.9288 28.1348 16.4128C28.1348 14.7744 27.2571 13.3311 25.9503 12.5314H25.9601Z" fill="url(#paint0_linear_3005_50913)"/>
<path fill-rule="evenodd" clip-rule="evenodd" d="M31.2067 16.4518C31.2067 18.0121 30.7288 19.4749 29.9194 20.6744C29.11 21.8837 27.9592 22.8297 26.6037 23.405C25.6968 23.7854 24.702 23.9999 23.6683 23.9999C22.108 23.9999 20.6452 23.5221 19.4457 22.7126C19.2116 22.5566 18.9873 22.3811 18.7728 22.1958L18.1876 21.6106C18.2936 21.6787 18.4016 21.7437 18.5117 21.8054C18.3985 21.7395 18.2872 21.6711 18.1779 21.6009L17.8073 21.2303L10.2202 13.5651C9.88864 13.2628 9.49855 13.0093 9.07921 12.824C8.61111 12.6289 8.09425 12.5119 7.54813 12.5119C6.72896 12.5119 5.97805 12.7557 5.35391 13.1848C4.72002 13.6139 4.22267 14.2088 3.9301 14.9207C3.85209 15.106 3.789 15.2639 3.74024 15.4687C3.74643 15.3738 3.75539 15.2796 3.76704 15.186C3.74367 15.2948 3.72323 15.4048 3.7058 15.5157C3.62778 15.818 3.58877 16.1301 3.58877 16.4519C3.58877 16.7542 3.61803 17.0468 3.68629 17.3198L3.68684 17.3237L3.68773 17.3197C3.795 17.8073 4.00813 18.2461 4.28119 18.6459C4.71028 19.2798 5.31491 19.7772 6.01706 20.0698C6.48516 20.2648 7.00202 20.3818 7.54814 20.3818C8.36732 20.3818 9.11823 20.138 9.74236 19.7089C9.75211 19.6992 9.76187 19.6919 9.77162 19.6845C9.78137 19.6772 9.79112 19.6699 9.80087 19.6602C10.7371 18.997 12.0146 19.1043 12.824 19.9235L13.692 20.8012L13.7017 20.8109C13.5067 21.0937 13.2921 21.357 13.0581 21.6008C12.3462 22.3712 11.4685 22.9858 10.4835 23.4051C9.57656 23.7855 8.58184 24 7.54812 24C5.98779 24 4.52497 23.5221 3.32547 22.7127C2.1162 21.9033 1.17025 20.7526 0.594878 19.397C0.214546 18.4901 0 17.4954 0 16.4616C0 14.9013 0.477853 13.4385 1.28728 12.239C2.0967 11.0395 3.24745 10.0838 4.60299 9.50838C5.50993 9.12805 6.50465 8.91351 7.53837 8.91351H7.83093C9.27424 8.97202 10.6395 9.44012 11.761 10.2008C12.246 10.5336 12.6939 10.9128 13.0866 11.3473C13.113 11.3649 13.1392 11.3825 13.1653 11.4002L13.2629 11.4977L21.1718 19.4847C21.4644 19.7285 21.7959 19.9332 22.1568 20.0795C22.6249 20.2746 23.1417 20.3916 23.6879 20.3916C24.507 20.3916 25.2579 20.1478 25.8821 19.7187C26.516 19.2896 27.0133 18.685 27.3059 17.9828C27.4619 17.6123 27.5497 17.2124 27.5789 16.7833C27.5559 17.2313 27.4883 17.6758 27.3795 18.108C27.4953 17.6863 27.5668 17.2462 27.5887 16.7931L27.5909 16.766C27.5999 16.6594 27.6082 16.5605 27.6082 16.4615C27.6082 16.3348 27.6082 16.1982 27.5887 16.0715C27.5552 15.5505 27.4564 15.0475 27.3004 14.5705C27.2393 14.4603 27.1727 14.3528 27.1008 14.2478C26.6637 13.614 26.0478 13.1166 25.3325 12.824C24.8557 12.629 24.3292 12.512 23.7729 12.512C22.9384 12.512 22.1735 12.7558 21.5377 13.1849C21.5377 13.1849 21.5278 13.1849 21.5178 13.1946C20.5542 13.8383 19.2628 13.7407 18.4383 12.9313L17.5442 12.0439H17.5343C17.6833 11.8293 17.8521 11.6245 18.021 11.4392L18.0225 11.4385C18.7635 10.6002 19.68 9.93727 20.7329 9.48879C21.4741 9.17672 22.2835 8.97193 23.1222 8.91342C23.1807 8.91342 23.2392 8.90854 23.2977 8.90367C23.3563 8.89879 23.4148 8.89391 23.4733 8.89391H23.6683C25.2287 8.89391 26.6915 9.37177 27.891 10.1812C29.1002 10.9906 30.0462 12.1414 30.6216 13.4969C31.0019 14.4038 31.2164 15.3986 31.2164 16.4323L31.2067 16.4518ZM21.3706 22.5846C21.4115 22.5854 21.4525 22.5859 21.4936 22.5859C21.5139 22.5859 21.5342 22.5858 21.5544 22.5856C21.531 22.5826 21.5075 22.5794 21.4839 22.5761C21.446 22.5795 21.4083 22.5823 21.3706 22.5846ZM18.0707 11.41C18.0694 11.4106 18.0681 11.4113 18.0669 11.4119C18.0657 11.4125 18.0645 11.4132 18.0634 11.4138C18.0657 11.4125 18.0681 11.4113 18.0707 11.41Z" fill="url(#paint1_linear_3005_50913)"/>
<defs>
<linearGradient id="paint0_linear_3005_50913" x1="15.6082" y1="0" x2="15.6082" y2="37.5065" gradientUnits="userSpaceOnUse">
<stop stop-color="#C8B6FF"/>
<stop offset="0.646999" stop-color="#957BE1" stop-opacity="0"/>
</linearGradient>
<linearGradient id="paint1_linear_3005_50913" x1="-0.1035" y1="16.3123" x2="31.2089" y2="16.3123" gradientUnits="userSpaceOnUse">
<stop stop-color="#8044FF"/>
<stop offset="0.479167" stop-color="#D386DE"/>
<stop offset="1" stop-color="#F16F81"/>
</linearGradient>
</defs>
</svg>
